# xmcd CD database file
#
# Track frame offsets:
#	150
#	16962
#	33297
#	52312
#	68362
#	85725
#	104992
#	118725
#	137705
#	156000
#	176525
#	195422
#	214142
#	233427
#	254247
#
# Disc length: 3679 seconds
#
# Revision: 2
# Processed by: cddbd v1.5.1PL0 Copyright (c) Steve Scherf et al.
# Submitted via: CDex 1.51
#
DISCID=d00e5d0f
DTITLE=石川さゆり - 石川さゆり全曲集 第一集/津軽海峡・冬景色
DYEAR=1993
DGENRE=World
TTITLE0=津軽海峡・冬景色
TTITLE1=合縁坂
TTITLE2=波止場しぐれ
TTITLE3=砂になりたい
TTITLE4=恋は天下のまわりもの
TTITLE5=大阪つばめ
TTITLE6=ウイスキーが、お好きでしょ
TTITLE7=春の雪
TTITLE8=みちゆき博多発
TTITLE9=紫陽花ばなし
TTITLE10=港唄
TTITLE11=ほととぎす
TTITLE12=漁火挽歌
TTITLE13=春夏秋冬
TTITLE14=越前竹舞い
EXTD=YEAR: 1993
EXTT0=
EXTT1=
EXTT2=
EXTT3=
EXTT4=
EXTT5=
EXTT6=
EXTT7=
EXTT8=
EXTT9=
EXTT10=
EXTT11=
EXTT12=
EXTT13=
EXTT14=
PLAYORDER=
